<?xml version="1.0" encoding="UTF-8"?>
<mxfile host="app.diagrams.net">
  <diagram name="Study Timer Flowchart" id="flowchart-1753450820.142911">
    <mxGraphModel dx="1220" dy="730" grid="1" gridSize="10" guides="1" tooltips="1" connect="1" arrows="1" fold="1" page="1" pageScale="1" pageWidth="850" pageHeight="1100">
      <root>
        <mxCell id="0"/>
        <mxCell id="1" parent="0"/>
        <!-- 사용자 흐름 -->
        <mxCell id="2" value="사용자: 전원 켬" style="rounded=1;whiteSpace=wrap;html=1;" vertex="1" parent="1">
          <mxGeometry x="80" y="60" width="180" height="60" as="geometry"/>
        </mxCell>
        <mxCell id="3" value="카메라 세팅" style="rounded=1;whiteSpace=wrap;html=1;" vertex="1" parent="1">
          <mxGeometry x="80" y="140" width="180" height="60" as="geometry"/>
        </mxCell>
        <mxCell id="4" value="[시작/정지] 버튼 클릭" style="rounded=1;whiteSpace=wrap;html=1;" vertex="1" parent="1">
          <mxGeometry x="80" y="220" width="180" height="60" as="geometry"/>
        </mxCell>
        <mxCell id="5" value="공부 상태 진입" style="rounded=1;whiteSpace=wrap;html=1;" vertex="1" parent="1">
          <mxGeometry x="400" y="60" width="180" height="60" as="geometry"/>
        </mxCell>
        <mxCell id="6" value="AI 분석 상태" style="rounded=1;whiteSpace=wrap;html=1;" vertex="1" parent="1">
          <mxGeometry x="400" y="140" width="180" height="60" as="geometry"/>
        </mxCell>
        <mxCell id="7" value="집중 흐트러짐 10초: 경고
20초: 멘트 출력 + 일시정지" style="rounded=1;whiteSpace=wrap;html=1;" vertex="1" parent="1">
          <mxGeometry x="400" y="220" width="220" height="80" as="geometry"/>
        </mxCell>
        <mxCell id="8" value="일시 정지 상태
[시작/정지]로 재시작 또는 [종료]" style="rounded=1;whiteSpace=wrap;html=1;" vertex="1" parent="1">
          <mxGeometry x="400" y="320" width="220" height="80" as="geometry"/>
        </mxCell>
        <mxCell id="9" value="집중 시간 출력 및 타이머 리셋" style="rounded=1;whiteSpace=wrap;html=1;" vertex="1" parent="1">
          <mxGeometry x="400" y="440" width="220" height="60" as="geometry"/>
        </mxCell>

        <!-- 연결선 -->
        <mxCell id="10" style="endArrow=block" edge="1" source="2" target="3" parent="1"><mxGeometry relative="1" as="geometry"/></mxCell>
        <mxCell id="11" style="endArrow=block" edge="1" source="3" target="4" parent="1"><mxGeometry relative="1" as="geometry"/></mxCell>
        <mxCell id="12" style="endArrow=block" edge="1" source="4" target="5" parent="1"><mxGeometry relative="1" as="geometry"/></mxCell>
        <mxCell id="13" style="endArrow=block" edge="1" source="5" target="6" parent="1"><mxGeometry relative="1" as="geometry"/></mxCell>
        <mxCell id="14" style="endArrow=block" edge="1" source="6" target="7" parent="1"><mxGeometry relative="1" as="geometry"/></mxCell>
        <mxCell id="15" style="endArrow=block" edge="1" source="7" target="8" parent="1"><mxGeometry relative="1" as="geometry"/></mxCell>
        <mxCell id="16" style="endArrow=block" edge="1" source="8" target="9" parent="1"><mxGeometry relative="1" as="geometry"/></mxCell>
      </root>
    </mxGraphModel>
  </diagram>
</mxfile>
